<svg aria-hidden="true" style="position: absolute; width: 0; height: 0; overflow: hidden;" version="1.1" xmlns="http://www.w3.org/2000/svg" xmlns:xlink="http://www.w3.org/1999/xlink">
<defs>
<symbol id="icon-linkedin" viewBox="0 0 32 32">
<path fill="#f4f4fd" style="fill: var(--color1, #f4f4fd)" d="M31.992 32v-0.001h0.008v-11.736c0-5.741-1.236-10.164-7.947-10.164-3.227 0-5.393 1.771-6.277 3.449h-0.093v-2.913h-6.363v21.364h6.627v-10.579c0-2.785 0.528-5.479 3.977-5.479 3.4 0 3.449 3.179 3.449 5.657v10.401h6.62zM0.528 10.636h6.635v21.364h-6.635v-21.364zM3.843 0c-2.122 0.001-3.842 1.721-3.843 3.843v0c0 2.121 1.721 3.879 3.843 3.879s3.843-1.757 3.843-3.879c-0.002-2.122-1.721-3.841-3.843-3.843h-0z"></path>
</symbol>
<symbol id="icon-twitter" viewBox="0 0 32 32">
<path fill="#f4f4fd" style="fill: var(--color1, #f4f4fd)" d="M32 6.079c-1.189 0.521-2.457 0.867-3.78 1.035 1.36-0.817 2.382-2.078 2.874-3.579l0.013-0.046c-1.197 0.723-2.591 1.274-4.076 1.574l-0.084 0.014c-1.2-1.28-2.901-2.078-4.789-2.078-3.622 0-6.559 2.936-6.559 6.559 0 0.002 0 0.004 0 0.006v-0c0 0.52 0.044 1.019 0.152 1.495-5.455-0.265-10.28-2.88-13.523-6.861-0.563 0.95-0.896 2.094-0.897 3.316v0c0 2.272 1.169 4.285 2.913 5.452-1.092-0.030-2.109-0.326-2.997-0.825l0.033 0.017v0.072c0.004 3.164 2.237 5.806 5.213 6.439l0.043 0.008c-0.533 0.145-1.116 0.216-1.72 0.216-0.031 0.001-0.067 0.001-0.104 0.001-0.403 0-0.797-0.041-1.176-0.119l0.037 0.006c0.851 2.597 3.263 4.507 6.131 4.569-2.215 1.745-5.045 2.799-8.121 2.799-0.004 0-0.009 0-0.013 0h0.001c-0.539 0-1.055-0.024-1.571-0.091 2.826 1.846 6.287 2.944 10.004 2.944 0.021 0 0.042-0 0.063-0h-0.003c12.072 0 18.672-10 18.672-18.668 0-0.289-0.011-0.569-0.024-0.848 1.299-0.937 2.391-2.066 3.258-3.358l0.030-0.047z"></path>
</symbol>
</defs>
</svg>
